<svg width="137" height="36" viewBox="0 0 137 36" fill="none" xmlns="http://www.w3.org/2000/svg">
<path d="M129.286 24.4047C130.952 24.4047 132.914 23.4007 132.914 19.7042C132.914 16.099 130.746 15.1179 129.423 15.1179C127.461 15.1179 125.863 16.6923 125.863 19.9096C125.863 22.5793 127.324 24.4047 129.286 24.4047ZM132.914 9.41339H134.306V25.5456H132.914V23.8571C132.207 24.9523 131.066 25.7281 129.332 25.7281C126.091 25.7281 124.403 22.9672 124.403 19.8868C124.403 16.3044 126.457 13.7944 129.377 13.7944C130.952 13.7944 132.138 14.5474 132.914 15.7111V9.41339Z" fill="white"/>
<path d="M119.327 13.9769V15.9393C119.898 14.6843 120.902 13.84 122.567 13.84C122.75 13.84 122.932 13.8628 123.138 13.8857V15.3004C122.841 15.2091 122.567 15.1635 122.225 15.1635C120.491 15.1635 119.327 17.2171 119.327 19.0881V25.5456H117.935V13.9769H119.327Z" fill="white"/>
<path d="M113.661 20.0465H111.402C109.097 20.0465 108.184 21.0961 108.184 22.237C108.184 23.4463 108.983 24.3819 110.649 24.3819C112.52 24.3819 113.661 23.2181 113.661 21.7122V20.0465ZM107.546 16.099V14.593C108.344 14.1138 109.668 13.7944 110.809 13.7944C113.866 13.7944 115.053 15.4601 115.053 18.2439V25.5456H113.661V24.1993C113.273 24.7926 112.292 25.6597 110.329 25.6597C108.184 25.6597 106.701 24.2449 106.701 22.2826C106.701 20.0236 108.618 18.7687 111.402 18.7687H113.661V18.2439C113.661 16.2815 112.953 15.1178 110.786 15.1178C109.713 15.1178 108.413 15.5057 107.546 16.099Z" fill="white"/>
<path d="M99.3415 25.7509C96.0101 25.7509 94.0249 23.1269 94.0249 19.8183C94.0249 16.5097 96.147 13.8172 99.3415 13.8172C102.924 13.8172 104.772 16.5097 104.772 19.8183C104.772 23.1269 102.81 25.7509 99.3415 25.7509ZM99.3415 15.1406C96.8315 15.1406 95.4852 17.3768 95.4852 19.8183C95.4852 22.2598 96.9684 24.4275 99.3415 24.4275C101.988 24.4275 103.312 22.2598 103.312 19.8183C103.312 17.3768 102.194 15.1406 99.3415 15.1406Z" fill="white"/>
<path d="M87.3257 24.4047C89.288 24.4047 90.7484 22.5793 90.7484 19.9096C90.7484 16.6923 89.1511 15.1179 87.1888 15.1179C85.8654 15.1179 83.6977 16.099 83.6977 19.7042C83.6977 23.4007 85.66 24.4047 87.3257 24.4047ZM83.6977 9.41339V15.7111C84.4735 14.5474 85.66 13.7944 87.2344 13.7944C90.1551 13.7944 92.2087 16.3044 92.2087 19.8868C92.2087 22.9672 90.5202 25.7281 87.2801 25.7281C85.5459 25.7281 84.405 24.9523 83.6977 23.8571V25.5456H82.3058V9.41339H83.6977Z" fill="white"/>
<path d="M76.4183 15.7111V22.0773C76.4183 23.1725 76.9659 23.743 78.0155 23.743C78.5631 23.743 79.1792 23.5604 79.5899 23.241V25.249C79.088 25.5228 78.2665 25.6597 77.7417 25.6597C75.2546 25.6597 74.1593 24.3362 74.1593 22.0316V15.7111H72.3567V13.9769H74.1593V11.1475H76.4183V13.9769H79.453V15.7111H76.4183Z" fill="white"/>
<path d="M64.4457 19.8183C64.4914 22.0545 65.8376 23.8343 68.3932 23.8343C69.3059 23.8343 70.2643 23.5148 70.9488 23.0813V25.0893C70.2414 25.5228 69.1006 25.7738 68.0966 25.7738C64.3773 25.7738 62.1411 23.0813 62.1411 19.7955C62.1411 16.6467 64.3088 13.7716 68.1878 13.7716C68.9636 13.7716 70.0133 13.9313 70.9488 14.4105V16.4641C70.1958 15.9849 69.169 15.7568 68.416 15.7568C65.9745 15.7568 64.4457 17.4909 64.4457 19.8183Z" fill="white"/>
<path d="M57.7139 20.3887H55.9798C54.1772 20.3887 53.4014 21.2102 53.4014 22.1685C53.4014 23.1953 54.0403 23.8799 55.3637 23.8799C56.8469 23.8799 57.7139 22.9671 57.7139 21.6893V20.3887ZM51.8954 16.7379V14.5702C52.6484 14.1366 54.0403 13.7944 55.455 13.7944C58.6038 13.7944 59.9957 15.3232 59.9957 18.1982V25.5456H57.7824V24.1765C57.3945 24.8154 56.4818 25.6368 54.6564 25.6368C52.4202 25.6368 51.0283 24.1765 51.0283 22.2826C51.0283 20.0693 52.7853 18.7687 55.7972 18.7687H57.7139V18.1069C57.7139 16.6238 57.0979 15.7111 55.2496 15.7111C54.0403 15.7111 52.7625 16.1446 51.8954 16.7379Z" fill="white"/>
<path d="M49.9562 9.39055V11.3529C49.5911 11.1932 49.226 11.1247 48.8609 11.1247C47.9482 11.1247 47.1952 11.6495 47.1952 13.1099V13.9769H49.6367V15.7111H47.1952V25.5456H44.9591V15.7111H43.1108V13.9769H44.9591V13.087C44.9591 10.6912 46.3053 9.20801 48.6556 9.20801C49.0435 9.20801 49.5455 9.27646 49.9562 9.39055Z" fill="white"/>
<mask id="mask0_2059_11" style="mask-type:alpha" maskUnits="userSpaceOnUse" x="1" y="1" width="34" height="34">
<rect x="17.9998" width="25.4558" height="25.4558" rx="2.54558" transform="rotate(45 17.9998 0)" fill="white"/>
</mask>
<g mask="url(#mask0_2059_11)">
<path d="M24.0006 30L12.0005 17.9999L6.00118 23.9992L0.00112731 17.9992L12.0005 5.99978L24.0006 17.9999L30.0007 11.9998L36.0007 17.9999L24.0006 30Z" fill="white"/>
<rect opacity="0.6" x="29.2507" y="11.25" width="7.42462" height="15.9099" transform="rotate(135 29.2507 11.25)" fill="white"/>
<rect opacity="0.6" x="23.2505" y="30.7499" width="7.42462" height="15.9099" transform="rotate(135 23.2505 30.7499)" fill="white"/>
</g>
</svg>
